<svg id="Capa_1" enable-background="new 0 0 512.002 512.002" height="512" viewBox="0 0 512.002 512.002" width="512" xmlns="http://www.w3.org/2000/svg"><g><path d="m383.502 504.5h-30l-90-248.5 90-248.5h30z" fill="#a45e43"/><path d="m353.502 504.5h-195v-497h195v30l-90 109.25 90 109.25v90l-45 64.25 45 64.25z" fill="#c27749"/><path d="m353.502 256h-30l-60-109.25 60-109.25h30z" fill="#85453d"/><path d="m188.502 37.5h135v218.5h-135z" fill="#a45e43"/><path d="m353.502 474.5h-30l-45-64.25 45-64.25h30z" fill="#85453d"/><path d="m188.502 346h135v128.5h-135z" fill="#a45e43"/><circle cx="271.002" cy="301" fill="#ffcb63" r="15"/><path d="m503.502 384.5-15 10-15-10-30 70.015 30 49.985h30z" fill="#ff8646"/><path d="m473.502 384.5-15 10-15-10-15 10-15-10v120h60z" fill="#ffa754"/><path d="m470.502 306.5c-4.611 0-8.815 1.736-12 4.587l-20 13.413 20 30c16.569 0 30-13.431 30-30 0-9.941-8.059-18-18-18z" fill="#cf301b"/><path d="m446.502 306.5c-9.941 0-18 8.059-18 18 0 16.569 13.431 30 30 30v-43.413c-3.185-2.851-7.389-4.587-12-4.587z" fill="#ff4128"/><path d="m68.502 247.5v90c24.853 0 45-20.147 45-45z" fill="#808080"/><path d="m83.502 292.5v-45l-60 45c0 24.853 20.147 45 45 45 8.284 0 15-20.147 15-45z" fill="#999"/><path d="m108.502 172.5h-30v75l5 45h30v-45c8.964-4.993 15-14.315 15-25v-30c0-11.046-8.955-20-20-20z" fill="#ffa754"/><path d="m78.502 172.5h-50c-11.046 0-20 8.954-20 20v30c0 10.685 6.036 20.007 15 25v45h60v-45c8.964-4.993 15-14.315 15-25v-30c0-11.046-8.955-20-20-20z" fill="#ffcb63"/><path d="m68.502 52.5v100l45-45v-10c0-24.86-20.15-45-45-45z" fill="#ffb4a9"/><path d="m68.502 52.5c-24.86 0-45 20.14-45 45v10l60 45v-55c0-24.86-6.72-45-15-45z" fill="#ffd9d4"/><path d="m83.502 107.5-15 65c24.85 0 45-20.15 45-45v-20z" fill="#c27749"/><path d="m83.502 107.5v20c0 24.85-6.72 45-15 45-24.86 0-45-20.15-45-45v-20h30c2.45-5.87 8.24-10 15-10s12.55 4.13 15 10z" fill="#e18f4e"/><path d="m383.502 0h-225c-4.142 0-7.5 3.358-7.5 7.5v497c0 4.142 3.358 7.5 7.5 7.5h225c4.142 0 7.5-3.358 7.5-7.5v-497c0-4.142-3.358-7.5-7.5-7.5zm-7.5 497h-210v-482h210z"/><path d="m188.502 263.5h165c4.142 0 7.5-3.358 7.5-7.5v-218.5c0-4.142-3.358-7.5-7.5-7.5h-165c-4.142 0-7.5 3.358-7.5 7.5v218.5c0 4.142 3.358 7.5 7.5 7.5zm7.5-218.5h150v203.5h-150z"/><path d="m188.502 482h165c4.142 0 7.5-3.358 7.5-7.5v-128.5c0-4.142-3.358-7.5-7.5-7.5h-165c-4.142 0-7.5 3.358-7.5 7.5v128.5c0 4.142 3.358 7.5 7.5 7.5zm7.5-128.5h150v113.5h-150z"/><path d="m248.502 301c0 12.407 10.093 22.5 22.5 22.5s22.5-10.093 22.5-22.5-10.093-22.5-22.5-22.5-22.5 10.093-22.5 22.5zm30 0c0 4.136-3.364 7.5-7.5 7.5s-7.5-3.364-7.5-7.5 3.364-7.5 7.5-7.5 7.5 3.364 7.5 7.5z"/><path d="m458.502 362c20.678 0 37.5-16.822 37.5-37.5 0-14.061-11.439-25.5-25.5-25.5-1.52 0-3.024.14-4.5.404v-4.904c0-4.142-3.358-7.5-7.5-7.5s-7.5 3.358-7.5 7.5v4.904c-1.476-.264-2.98-.404-4.5-.404-14.061 0-25.5 11.439-25.5 25.5 0 20.678 16.822 37.5 37.5 37.5zm-12-48c2.585 0 5.071.95 6.998 2.675 2.849 2.549 7.157 2.548 10.005 0 1.927-1.725 4.412-2.675 6.998-2.675 5.79 0 10.5 4.71 10.5 10.5 0 12.407-10.093 22.5-22.5 22.5s-22.5-10.093-22.5-22.5c-.001-5.79 4.709-10.5 10.499-10.5z"/><path d="m507.041 377.887c-2.439-1.305-5.397-1.163-7.699.373l-10.84 7.227-10.84-7.227c-2.52-1.68-5.801-1.68-8.32 0l-10.84 7.227-10.84-7.227c-2.52-1.68-5.801-1.68-8.32 0l-10.84 7.227-10.84-7.227c-2.302-1.535-5.261-1.678-7.699-.373s-3.961 3.847-3.961 6.613v120c0 4.142 3.358 7.5 7.5 7.5h90c4.142 0 7.5-3.358 7.5-7.5v-120c0-2.766-1.522-5.308-3.961-6.613zm-11.039 119.113h-75v-98.486l3.34 2.227c2.52 1.68 5.801 1.68 8.32 0l10.84-7.227 10.84 7.227c2.52 1.68 5.801 1.68 8.32 0l10.84-7.227 10.84 7.227c2.52 1.68 5.801 1.68 8.32 0l3.34-2.227z"/><path d="m130.874 497.385-24.872-8.291v-159.902c9.27-9.472 15-22.423 15-36.692v-40.911c9.35-6.82 15-17.604 15-29.089v-30c0-15.164-12.336-27.5-27.5-27.5h-3.308c9.745-9.537 15.808-22.821 15.808-37.5v-30c0-28.949-23.551-52.5-52.5-52.5s-52.5 23.551-52.5 52.5v30c0 14.679 6.063 27.963 15.808 37.5h-3.308c-15.164 0-27.5 12.336-27.5 27.5v30c0 11.485 5.65 22.27 15 29.089v40.911c0 14.269 5.73 27.22 15 36.692v159.902l-24.872 8.291c-3.93 1.31-6.053 5.557-4.744 9.487 1.048 3.143 3.974 5.13 7.114 5.13.786 0 1.586-.125 2.373-.387l30-10c3.063-1.021 5.128-3.887 5.128-7.115v-154.576c6.824 3.251 14.452 5.076 22.5 5.076s15.676-1.825 22.5-5.076v154.576c0 3.228 2.066 6.094 5.128 7.115l30 10c.787.262 1.586.387 2.373.387 3.14 0 6.066-1.988 7.114-5.13 1.311-3.93-.813-8.177-4.742-9.487zm-62.372-437.385c20.678 0 37.5 16.822 37.5 37.5v2.5h-18.129c-4.389-6.2-11.546-10-19.371-10s-14.982 3.8-19.371 10h-18.129v-2.5c0-20.678 16.822-37.5 37.5-37.5zm-37.5 67.5v-12.5h22.5c3.027 0 5.757-1.819 6.922-4.613 1.365-3.272 4.536-5.387 8.079-5.387s6.713 2.115 8.079 5.387c1.165 2.793 3.895 4.613 6.922 4.613h22.5v12.5c0 20.678-16.822 37.5-37.5 37.5s-37.502-16.822-37.502-37.5zm-15 95v-30c0-6.893 5.607-12.5 12.5-12.5h80c6.893 0 12.5 5.607 12.5 12.5v30c0 7.549-4.272 14.618-11.149 18.448-2.377 1.324-3.851 3.832-3.851 6.552v37.5h-75v-37.5c0-2.721-1.474-5.229-3.851-6.552-6.877-3.83-11.149-10.899-11.149-18.448zm15.755 77.5h73.491c-3.484 17.096-18.635 30-36.745 30s-33.262-12.904-36.746-30z"/></g></svg>